<svg width="241" height="23" viewBox="0 0 241 23" fill="none" xmlns="http://www.w3.org/2000/svg">
<path d="M2.58984 18.1172C1.47656 18.1172 0.890625 17.4141 0.890625 16.1016V4.38281C0.890625 2.82422 1.78125 1.875 3.21094 1.875C4.45312 1.875 5.26172 2.49609 5.88281 4.17188L8.98828 12.1641H9.11719L12.2109 4.16016C12.8438 2.46094 13.6055 1.875 14.9062 1.875C16.3594 1.875 17.1914 2.78906 17.1914 4.38281V16.1016C17.1914 17.3789 16.5469 18.1172 15.4219 18.1172C14.3203 18.1172 13.7344 17.4141 13.7344 16.1016V8.05078H13.6289L10.8398 15.1758C10.3828 16.3711 9.84375 16.7461 9.05859 16.7461C8.26172 16.7461 7.71094 16.3477 7.25391 15.1758L4.45312 8.05078H4.35938V16.1016C4.35938 17.3789 3.71484 18.1172 2.58984 18.1172ZM26.8945 16.4648C26.3086 17.5195 25.0898 18.1406 23.6016 18.1406C21.1523 18.1406 19.5 16.6172 19.5 14.3555C19.5 12.0234 21.2461 10.5938 24.1406 10.582H26.9062V9.67969C26.9062 8.625 26.2148 8.0625 25.0195 8.0625C24.1523 8.0625 23.5195 8.41406 22.8516 8.89453C22.4648 9.14062 22.0781 9.28125 21.4922 9.28125C20.6836 9.28125 20.1914 8.74219 20.1914 8.01562C20.1914 7.25391 20.707 6.49219 21.8672 5.94141C22.6992 5.54297 23.8125 5.29688 25.2656 5.29688C28.7109 5.29688 30.668 6.90234 30.668 9.72656V16.125C30.668 17.4141 30.0117 18.1172 28.8398 18.1172C27.8789 18.1172 27.2227 17.6133 27.0703 16.7109V16.4648H26.8945ZM23.2031 14.0859C23.2031 14.9648 23.918 15.5742 24.9375 15.5742C26.0391 15.5742 26.9062 14.8359 26.9062 13.8867V12.668H24.9844C23.8828 12.668 23.2031 13.207 23.2031 14.0859ZM32.6953 15.5156C32.6953 14.7422 33.2461 14.2148 34.0664 14.2148C34.5 14.2148 34.8398 14.3672 35.4609 14.7422C36.457 15.3633 37.1836 15.6211 38.0508 15.6211C39.1289 15.6211 39.7852 15.1992 39.7852 14.4961C39.7852 13.875 39.2695 13.4414 38.1211 13.1836L36.375 12.8086C33.9609 12.3047 32.8594 11.1445 32.8594 9.23438C32.8594 6.79688 34.9688 5.17969 38.2266 5.17969C39.3984 5.17969 40.5117 5.40234 41.4023 5.83594C42.4102 6.30469 42.9727 6.99609 42.9727 7.78125C42.9727 8.55469 42.4102 9.02344 41.6016 9.02344C41.2266 9.02344 40.8281 8.90625 40.1953 8.55469C39.2578 8.00391 38.6719 7.82812 38.0273 7.82812C37.043 7.82812 36.457 8.32031 36.457 9.01172C36.457 9.60938 36.8789 9.94922 37.8516 10.1602L40.0547 10.6055C42.3164 11.0742 43.3828 12.2344 43.3828 14.1562C43.3828 16.7227 41.3203 18.3047 37.8398 18.3047C36.4219 18.3047 35.1562 18.0352 34.2188 17.5547C33.2344 17.0508 32.6953 16.3359 32.6953 15.5156ZM46.4766 14.6367V8.49609H46.0195C45.0234 8.49609 44.4609 7.96875 44.4609 7.06641C44.4609 6.16406 45.0234 5.63672 46.0195 5.63672H46.5703V4.27734C46.5703 2.98828 47.2266 2.27344 48.3867 2.27344C49.5586 2.27344 50.2031 2.98828 50.2031 4.27734V5.63672H51.1875C52.1836 5.63672 52.7461 6.16406 52.7461 7.06641C52.7461 7.96875 52.1836 8.49609 51.1875 8.49609H50.25V14.0625C50.25 15.0703 50.5312 15.4453 51.3281 15.4453C51.6562 15.4453 51.8555 15.3867 52.1836 15.3867C52.7695 15.3867 53.1797 15.7969 53.1797 16.4531C53.1797 16.9922 52.9336 17.4375 52.4648 17.7539C51.9609 18.1055 51.2227 18.293 50.2734 18.293C47.6719 18.293 46.4766 17.168 46.4766 14.6367ZM54.3047 12.4453V11.0625C54.3047 7.52344 56.6484 5.17969 60.1758 5.17969C63.4922 5.17969 65.8359 7.5 65.8359 10.6055C65.8359 12.0352 65.332 12.5508 63.9844 12.5508H58.1367V13.0078C58.1602 14.4844 59.1445 15.4805 60.8203 15.4805C61.7227 15.4805 62.332 15.2812 62.8125 14.9297C63.3867 14.5664 63.6328 14.3438 64.2188 14.3438C64.9805 14.3438 65.4844 14.8359 65.4844 15.6328C65.4844 16.3008 65.0742 16.8867 64.3594 17.332C63.5039 17.9414 62.1328 18.3047 60.5508 18.3047C56.6836 18.3047 54.3047 16.1016 54.3047 12.4453ZM58.1367 10.3945H62.2852V10.3594C62.2852 8.92969 61.4883 7.99219 60.2578 7.99219C58.9336 7.99219 58.1367 8.95312 58.1367 10.3594V10.3945ZM71.8008 16.0547C71.8008 17.3672 71.0977 18.1172 69.8789 18.1172C68.6484 18.1172 68.0391 17.3672 68.0391 16.0547V7.44141C68.0391 6.11719 68.6836 5.37891 69.8906 5.37891C70.9805 5.37891 71.6016 5.98828 71.6836 7.125V7.30078H71.8594C72.2812 6.01172 73.1719 5.29688 74.3789 5.29688C74.8945 5.29688 75.3047 5.4375 75.5977 5.71875C75.9023 6 76.0664 6.41016 76.0664 6.9375C76.0664 7.45312 75.9141 7.82812 75.6094 8.08594C75.3281 8.32031 74.8945 8.44922 74.332 8.47266C72.6328 8.53125 71.8008 9.45703 71.8008 11.25V16.0547ZM81.5039 20.8125C81.5039 20.1562 81.9961 19.6758 82.7109 19.6758C83.0156 19.6758 83.2266 19.7344 83.6367 19.7461C84.2695 19.7461 84.7734 19.3711 84.9844 18.7734C85.0312 18.668 85.1133 18.2578 85.1133 18.1172L81.6445 8.0625C81.5273 7.6875 81.4805 7.40625 81.4805 7.14844C81.4805 6.14062 82.2656 5.41406 83.332 5.41406C84.3633 5.41406 85.0078 5.98828 85.2656 7.16016L87.2812 15.0938H87.4336L89.5195 7.16016C89.8008 5.97656 90.4102 5.41406 91.418 5.41406C92.4492 5.41406 93.1992 6.14062 93.1992 7.13672C93.1992 7.40625 93.1406 7.67578 93.0117 8.0625L89.5195 18.2344C88.5117 21.1875 86.9297 22.4414 84.0586 22.4414C83.0859 22.4414 82.3359 22.2188 81.9141 21.8086C81.6445 21.5391 81.5039 21.1992 81.5039 20.8125ZM100.312 5.17969C103.922 5.17969 106.324 7.42969 106.324 11.0859V12.3047C106.324 16.125 103.922 18.3047 100.312 18.3047C96.6914 18.3047 94.2891 16.125 94.2891 12.3164V11.1094C94.2891 7.42969 96.6914 5.17969 100.312 5.17969ZM100.312 7.99219C98.9766 7.99219 98.168 9.12891 98.168 11.0859V12.3867C98.168 14.3438 98.9766 15.4922 100.312 15.4922C101.66 15.4922 102.434 14.3438 102.434 12.3867V11.0859C102.434 9.12891 101.66 7.99219 100.312 7.99219ZM116.156 15.9023C115.746 17.1328 114.422 18.1406 112.453 18.1406C109.957 18.1406 108.363 16.7344 108.363 13.8164V7.42969C108.363 6.07031 109.066 5.37891 110.262 5.37891C111.445 5.37891 112.137 6.07031 112.137 7.42969V12.8672C112.137 14.4141 112.945 15.082 114.07 15.082C115.418 15.082 116.238 14.168 116.238 12.7852V7.42969C116.238 6.07031 116.93 5.37891 118.113 5.37891C119.309 5.37891 120 6.07031 120 7.42969V16.125C120 17.3906 119.273 18.1172 118.16 18.1172C117.07 18.1172 116.402 17.4961 116.344 16.3125V15.9023H116.156ZM126.48 16.0547C126.48 17.3672 125.777 18.1172 124.559 18.1172C123.328 18.1172 122.719 17.3672 122.719 16.0547V7.44141C122.719 6.11719 123.363 5.37891 124.57 5.37891C125.66 5.37891 126.281 5.98828 126.363 7.125V7.30078H126.539C126.961 6.01172 127.852 5.29688 129.059 5.29688C129.574 5.29688 129.984 5.4375 130.277 5.71875C130.582 6 130.746 6.41016 130.746 6.9375C130.746 7.45312 130.594 7.82812 130.289 8.08594C130.008 8.32031 129.574 8.44922 129.012 8.47266C127.312 8.53125 126.48 9.45703 126.48 11.25V16.0547ZM136.934 2.28516C136.934 1.21875 137.789 0.457031 138.961 0.457031C140.145 0.457031 140.988 1.21875 140.988 2.28516C140.988 3.36328 140.145 4.125 138.961 4.125C137.789 4.125 136.934 3.36328 136.934 2.28516ZM140.848 16.0547C140.848 17.4023 140.156 18.1172 138.961 18.1172C137.766 18.1172 137.086 17.4023 137.086 16.0547V7.44141C137.086 6.09375 137.777 5.37891 138.961 5.37891C140.156 5.37891 140.848 6.09375 140.848 7.44141V16.0547ZM155.32 16.0664C155.32 17.4023 154.641 18.1172 153.434 18.1172C152.215 18.1172 151.547 17.3789 151.547 16.0547V10.7109C151.547 9.26953 150.832 8.41406 149.602 8.41406C148.277 8.41406 147.422 9.42188 147.422 11.0742V16.0547C147.422 17.3789 146.754 18.1172 145.547 18.1172C144.34 18.1172 143.66 17.3789 143.66 16.0547V7.37109C143.66 6.12891 144.363 5.37891 145.5 5.37891C146.613 5.37891 147.258 6.01172 147.316 7.19531V7.65234H147.504C147.961 6.22266 149.402 5.29688 151.184 5.29688C153.82 5.29688 155.32 6.90234 155.32 9.72656V16.0664ZM158.883 14.6367V8.49609H158.426C157.43 8.49609 156.867 7.96875 156.867 7.06641C156.867 6.16406 157.43 5.63672 158.426 5.63672H158.977V4.27734C158.977 2.98828 159.633 2.27344 160.793 2.27344C161.965 2.27344 162.609 2.98828 162.609 4.27734V5.63672H163.594C164.59 5.63672 165.152 6.16406 165.152 7.06641C165.152 7.96875 164.59 8.49609 163.594 8.49609H162.656V14.0625C162.656 15.0703 162.938 15.4453 163.734 15.4453C164.062 15.4453 164.262 15.3867 164.59 15.3867C165.176 15.3867 165.586 15.7969 165.586 16.4531C165.586 16.9922 165.34 17.4375 164.871 17.7539C164.367 18.1055 163.629 18.293 162.68 18.293C160.078 18.293 158.883 17.168 158.883 14.6367ZM166.711 12.4453V11.0625C166.711 7.52344 169.055 5.17969 172.582 5.17969C175.898 5.17969 178.242 7.5 178.242 10.6055C178.242 12.0352 177.738 12.5508 176.391 12.5508H170.543V13.0078C170.566 14.4844 171.551 15.4805 173.227 15.4805C174.129 15.4805 174.738 15.2812 175.219 14.9297C175.793 14.5664 176.039 14.3438 176.625 14.3438C177.387 14.3438 177.891 14.8359 177.891 15.6328C177.891 16.3008 177.48 16.8867 176.766 17.332C175.91 17.9414 174.539 18.3047 172.957 18.3047C169.09 18.3047 166.711 16.1016 166.711 12.4453ZM170.543 10.3945H174.691V10.3594C174.691 8.92969 173.895 7.99219 172.664 7.99219C171.34 7.99219 170.543 8.95312 170.543 10.3594V10.3945ZM184.207 16.0547C184.207 17.3672 183.504 18.1172 182.285 18.1172C181.055 18.1172 180.445 17.3672 180.445 16.0547V7.44141C180.445 6.11719 181.09 5.37891 182.297 5.37891C183.387 5.37891 184.008 5.98828 184.09 7.125V7.30078H184.266C184.688 6.01172 185.578 5.29688 186.785 5.29688C187.301 5.29688 187.711 5.4375 188.004 5.71875C188.309 6 188.473 6.41016 188.473 6.9375C188.473 7.45312 188.32 7.82812 188.016 8.08594C187.734 8.32031 187.301 8.44922 186.738 8.47266C185.039 8.53125 184.207 9.45703 184.207 11.25V16.0547ZM192.059 14.8594L189.773 8.05078C189.668 7.73438 189.609 7.45312 189.609 7.18359C189.609 6.12891 190.383 5.40234 191.508 5.40234C192.527 5.40234 193.184 6 193.406 7.13672L195.211 14.7656H195.363L197.402 7.14844C197.684 5.97656 198.293 5.40234 199.266 5.40234C200.344 5.40234 201.094 6.11719 201.094 7.16016C201.094 7.44141 201.035 7.71094 200.906 8.0625L198.48 14.8594C197.531 17.4961 196.945 18.1172 195.293 18.1172C193.547 18.1172 192.938 17.5195 192.059 14.8594ZM202.957 2.28516C202.957 1.21875 203.812 0.457031 204.984 0.457031C206.168 0.457031 207.012 1.21875 207.012 2.28516C207.012 3.36328 206.168 4.125 204.984 4.125C203.812 4.125 202.957 3.36328 202.957 2.28516ZM206.871 16.0547C206.871 17.4023 206.18 18.1172 204.984 18.1172C203.789 18.1172 203.109 17.4023 203.109 16.0547V7.44141C203.109 6.09375 203.801 5.37891 204.984 5.37891C206.18 5.37891 206.871 6.09375 206.871 7.44141V16.0547ZM209.203 12.4453V11.0625C209.203 7.52344 211.547 5.17969 215.074 5.17969C218.391 5.17969 220.734 7.5 220.734 10.6055C220.734 12.0352 220.23 12.5508 218.883 12.5508H213.035V13.0078C213.059 14.4844 214.043 15.4805 215.719 15.4805C216.621 15.4805 217.23 15.2812 217.711 14.9297C218.285 14.5664 218.531 14.3438 219.117 14.3438C219.879 14.3438 220.383 14.8359 220.383 15.6328C220.383 16.3008 219.973 16.8867 219.258 17.332C218.402 17.9414 217.031 18.3047 215.449 18.3047C211.582 18.3047 209.203 16.1016 209.203 12.4453ZM213.035 10.3945H217.184V10.3594C217.184 8.92969 216.387 7.99219 215.156 7.99219C213.832 7.99219 213.035 8.95312 213.035 10.3594V10.3945ZM224.215 15.3047L222.281 7.99219C222.188 7.55859 222.152 7.34766 222.152 7.16016C222.152 6.11719 222.902 5.40234 224.027 5.40234C225 5.40234 225.633 6.02344 225.809 7.14844L227.098 14.3438H227.262L228.891 7.45312C229.207 6.04688 229.875 5.40234 231.047 5.40234C232.242 5.40234 232.957 6.07031 233.273 7.45312L234.914 14.3438H235.09L236.461 7.19531C236.66 6.05859 237.316 5.40234 238.254 5.40234C239.391 5.40234 240.117 6.10547 240.117 7.11328C240.117 7.32422 240.047 7.65234 239.953 8.03906L237.926 15.3047C237.363 17.3438 236.59 18.1172 235.277 18.1172C233.871 18.1172 233.098 17.3672 232.617 15.3047L231.129 9.53906H230.988L229.535 15.3047C229.055 17.3672 228.316 18.1172 226.887 18.1172C225.539 18.1172 224.719 17.2969 224.215 15.3047Z" fill="black"/>
</svg>
