<svg width="324" height="48" viewBox="0 0 324 48" fill="none" xmlns="http://www.w3.org/2000/svg">
<path d="M5.4375 47.3125C2.46875 47.3125 0.90625 45.4375 0.90625 41.9375V10.6875C0.90625 6.53125 3.28125 4 7.09375 4C10.4062 4 12.5625 5.65625 14.2188 10.125L22.5 31.4375H22.8438L31.0938 10.0938C32.7812 5.5625 34.8125 4 38.2812 4C42.1562 4 44.375 6.4375 44.375 10.6875V41.9375C44.375 45.3438 42.6562 47.3125 39.6562 47.3125C36.7188 47.3125 35.1562 45.4375 35.1562 41.9375V20.4688H34.875L27.4375 39.4688C26.2188 42.6562 24.7812 43.6562 22.6875 43.6562C20.5625 43.6562 19.0938 42.5938 17.875 39.4688L10.4062 20.4688H10.1562V41.9375C10.1562 45.3438 8.4375 47.3125 5.4375 47.3125ZM52.0625 5.09375C52.0625 2.25 54.3438 0.21875 57.4688 0.21875C60.625 0.21875 62.875 2.25 62.875 5.09375C62.875 7.96875 60.625 10 57.4688 10C54.3438 10 52.0625 7.96875 52.0625 5.09375ZM62.5 41.8125C62.5 45.4062 60.6562 47.3125 57.4688 47.3125C54.2812 47.3125 52.4688 45.4062 52.4688 41.8125V18.8438C52.4688 15.25 54.3125 13.3438 57.4688 13.3438C60.6562 13.3438 62.5 15.25 62.5 18.8438V41.8125ZM80.125 41.8125C80.125 45.3125 78.25 47.3125 75 47.3125C71.7188 47.3125 70.0938 45.3125 70.0938 41.8125V18.8438C70.0938 15.3125 71.8125 13.3438 75.0312 13.3438C77.9375 13.3438 79.5938 14.9688 79.8125 18V18.4688H80.2812C81.4062 15.0312 83.7812 13.125 87 13.125C88.375 13.125 89.4688 13.5 90.25 14.25C91.0625 15 91.5 16.0938 91.5 17.5C91.5 18.875 91.0938 19.875 90.2812 20.5625C89.5312 21.1875 88.375 21.5312 86.875 21.5938C82.3438 21.75 80.125 24.2188 80.125 29V41.8125ZM106.125 41.8125C106.125 45.3125 104.25 47.3125 101 47.3125C97.7188 47.3125 96.0938 45.3125 96.0938 41.8125V18.8438C96.0938 15.3125 97.8125 13.3438 101.031 13.3438C103.938 13.3438 105.594 14.9688 105.812 18V18.4688H106.281C107.406 15.0312 109.781 13.125 113 13.125C114.375 13.125 115.469 13.5 116.25 14.25C117.062 15 117.5 16.0938 117.5 17.5C117.5 18.875 117.094 19.875 116.281 20.5625C115.531 21.1875 114.375 21.5312 112.875 21.5938C108.344 21.75 106.125 24.2188 106.125 29V41.8125ZM135.906 12.8125C145.531 12.8125 151.938 18.8125 151.938 28.5625V31.8125C151.938 42 145.531 47.8125 135.906 47.8125C126.25 47.8125 119.844 42 119.844 31.8438V28.625C119.844 18.8125 126.25 12.8125 135.906 12.8125ZM135.906 20.3125C132.344 20.3125 130.188 23.3438 130.188 28.5625V32.0312C130.188 37.25 132.344 40.3125 135.906 40.3125C139.5 40.3125 141.562 37.25 141.562 32.0312V28.5625C141.562 23.3438 139.5 20.3125 135.906 20.3125ZM167.688 41.8125C167.688 45.3125 165.812 47.3125 162.562 47.3125C159.281 47.3125 157.656 45.3125 157.656 41.8125V18.8438C157.656 15.3125 159.375 13.3438 162.594 13.3438C165.5 13.3438 167.156 14.9688 167.375 18V18.4688H167.844C168.969 15.0312 171.344 13.125 174.562 13.125C175.938 13.125 177.031 13.5 177.812 14.25C178.625 15 179.062 16.0938 179.062 17.5C179.062 18.875 178.656 19.875 177.844 20.5625C177.094 21.1875 175.938 21.5312 174.438 21.5938C169.906 21.75 167.688 24.2188 167.688 29V41.8125ZM200.719 35.9375L208.688 9.0625C209.688 5.4375 211.219 3.96875 213.969 3.96875C216.938 3.96875 219.031 5.8125 219.031 8.53125C219.031 9.5625 218.688 11.1562 218.219 12.625L209 40.0312C207.344 45.1562 204.844 47.3125 200.375 47.3125C195.844 47.3125 193.25 45.125 191.625 40.0312L182.406 12.625C181.875 11.0625 181.594 9.625 181.594 8.625C181.594 5.875 183.719 3.96875 186.688 3.96875C189.344 3.96875 191.062 5.625 192.094 9.0625L200.25 35.9375H200.719ZM224.688 5.09375C224.688 2.25 226.969 0.21875 230.094 0.21875C233.25 0.21875 235.5 2.25 235.5 5.09375C235.5 7.96875 233.25 10 230.094 10C226.969 10 224.688 7.96875 224.688 5.09375ZM235.125 41.8125C235.125 45.4062 233.281 47.3125 230.094 47.3125C226.906 47.3125 225.094 45.4062 225.094 41.8125V18.8438C225.094 15.25 226.938 13.3438 230.094 13.3438C233.281 13.3438 235.125 15.25 235.125 18.8438V41.8125ZM241.344 32.1875V28.5C241.344 19.0625 247.594 12.8125 257 12.8125C265.844 12.8125 272.094 19 272.094 27.2812C272.094 31.0938 270.75 32.4688 267.156 32.4688H251.562V33.6875C251.625 37.625 254.25 40.2812 258.719 40.2812C261.125 40.2812 262.75 39.75 264.031 38.8125C265.562 37.8438 266.219 37.25 267.781 37.25C269.812 37.25 271.156 38.5625 271.156 40.6875C271.156 42.4688 270.062 44.0312 268.156 45.2188C265.875 46.8438 262.219 47.8125 258 47.8125C247.688 47.8125 241.344 41.9375 241.344 32.1875ZM251.562 26.7188H262.625V26.625C262.625 22.8125 260.5 20.3125 257.219 20.3125C253.688 20.3125 251.562 22.875 251.562 26.625V26.7188ZM281.375 39.8125L276.219 20.3125C275.969 19.1562 275.875 18.5938 275.875 18.0938C275.875 15.3125 277.875 13.4062 280.875 13.4062C283.469 13.4062 285.156 15.0625 285.625 18.0625L289.062 37.25H289.5L293.844 18.875C294.688 15.125 296.469 13.4062 299.594 13.4062C302.781 13.4062 304.688 15.1875 305.531 18.875L309.906 37.25H310.375L314.031 18.1875C314.562 15.1562 316.312 13.4062 318.812 13.4062C321.844 13.4062 323.781 15.2812 323.781 17.9688C323.781 18.5312 323.594 19.4062 323.344 20.4375L317.938 39.8125C316.438 45.25 314.375 47.3125 310.875 47.3125C307.125 47.3125 305.062 45.3125 303.781 39.8125L299.812 24.4375H299.438L295.562 39.8125C294.281 45.3125 292.312 47.3125 288.5 47.3125C284.906 47.3125 282.719 45.125 281.375 39.8125Z" fill="black"/>
</svg>
